<svg width="28.718994" height="22.048737" viewBox="0 0 28.719 22.0487" fill="none" xmlns="http://www.w3.org/2000/svg" xmlns:xlink="http://www.w3.org/1999/xlink">
	<desc>
			Created with Pixso.
	</desc>
	<defs/>
	<path id="Vector" d="M10.8391 21.7657L10.8311 21.7621L10.8057 21.7475C10.657 21.6614 10.5098 21.5731 10.3638 21.4825C8.60767 20.3833 6.96631 19.092 5.46729 17.6301C2.81274 15.0209 0 11.149 0 6.38031C0 2.82196 2.84277 9.15527e-05 6.27393 9.15527e-05C7.22778 -0.00482178 8.17017 0.216827 9.03149 0.64856C9.89282 1.08032 10.6506 1.71103 11.2485 2.49384C11.8467 1.71088 12.6047 1.08005 13.4661 0.648315C14.3276 0.216553 15.2705 -0.00500488 16.2246 9.15527e-05C19.6545 9.15527e-05 22.4973 2.82196 22.4973 6.38031C22.4973 11.1503 19.6846 15.0221 17.0298 17.6289C15.5308 19.0909 13.8896 20.3821 12.1335 21.4813C11.9875 21.5723 11.8401 21.661 11.6917 21.7475L11.6663 21.7621L11.6582 21.7669L11.6548 21.7681C11.5295 21.838 11.3901 21.8745 11.2485 21.8745C11.1069 21.8745 10.9675 21.838 10.8425 21.7681L10.8391 21.7657Z" fill="#FFFFFF" fill-opacity="1.000000" fill-rule="nonzero"/>
	<path id="offline_bolt" d="M21.032 19.757L24.1865 13.264L22.011 13.264L22.011 9.06259L18.7478 15.5557L21.032 15.5557L21.032 19.757ZM21.4673 22.0487C20.4641 22.0487 19.5212 21.8482 18.6389 21.4471C17.7566 21.0461 16.9893 20.5018 16.3364 19.8143C15.6838 19.1268 15.1672 18.3184 14.7864 17.389C14.4058 16.4596 14.2153 15.4666 14.2153 14.4098C14.2153 13.3531 14.4058 12.36 14.7864 11.4307C15.1672 10.5013 15.6838 9.69281 16.3364 9.00531C16.9893 8.31781 17.7566 7.77353 18.6389 7.3725C19.5212 6.97147 20.4641 6.77094 21.4673 6.77094C22.4705 6.77094 23.4131 6.97147 24.2954 7.3725C25.1777 7.77353 25.9453 8.31781 26.5979 9.00531C27.2505 9.69281 27.7673 10.5013 28.1479 11.4307C28.5286 12.36 28.719 13.3531 28.719 14.4098C28.719 15.4666 28.5286 16.4596 28.1479 17.389C27.7673 18.3184 27.2505 19.1268 26.5979 19.8143C25.9453 20.5018 25.1777 21.0461 24.2954 21.4471C23.4131 21.8482 22.4705 22.0487 21.4673 22.0487Z" fill="#894189" fill-opacity="1.000000" fill-rule="nonzero"/>
	<path id="offline_bolt" d="M21.4011 19.2709L24.2688 13.3681L22.2913 13.3681L22.2913 9.54868L19.3245 15.4514L21.4011 15.4514L21.4011 19.2709ZM21.7966 21.3542C20.8848 21.3542 20.0276 21.1719 19.2256 20.8073C18.4236 20.4427 17.7258 19.948 17.1323 19.323C16.5391 18.698 16.0693 17.963 15.7234 17.1181C15.3772 16.2732 15.2041 15.3704 15.2041 14.4098C15.2041 13.4491 15.3772 12.5464 15.7234 11.7014C16.0693 10.8565 16.5391 10.1216 17.1323 9.49658C17.7258 8.87158 18.4236 8.3768 19.2256 8.01221C20.0276 7.64761 20.8848 7.46533 21.7966 7.46533C22.7087 7.46533 23.5657 7.64761 24.3679 8.01221C25.1699 8.3768 25.8677 8.87158 26.4609 9.49658C27.0542 10.1216 27.5239 10.8565 27.8701 11.7014C28.2163 12.5464 28.3894 13.4491 28.3894 14.4098C28.3894 15.3704 28.2163 16.2732 27.8701 17.1181C27.5239 17.963 27.0542 18.698 26.4609 19.323C25.8677 19.948 25.1699 20.4427 24.3679 20.8073C23.5657 21.1719 22.7087 21.3542 21.7966 21.3542Z" fill="#FFFFFF" fill-opacity="1.000000" fill-rule="nonzero"/>
</svg>
