<svg width="39.169922" height="24.000000" viewBox="0 0 39.1699 24" fill="none" xmlns="http://www.w3.org/2000/svg" xmlns:xlink="http://www.w3.org/1999/xlink">
	<desc>
			Created with Pixso.
	</desc>
	<defs/>
	<path id="monetization_on" d="M9.63232 18.9945L11.4846 18.9945L11.4846 17.6714C12.3667 17.5126 13.1255 17.1686 13.7605 16.6393C14.3955 16.1101 14.7131 15.325 14.7131 14.2842C14.7131 13.5432 14.5015 12.864 14.0781 12.2466C13.6545 11.6291 12.8079 11.091 11.5376 10.6324C10.4792 10.2795 9.74707 9.97079 9.34131 9.70618C8.93555 9.44153 8.73267 9.0799 8.73267 8.62122C8.73267 8.16251 8.89575 7.80087 9.22217 7.53622C9.54858 7.27161 10.0205 7.13931 10.6379 7.13931C11.2024 7.13931 11.6436 7.27603 11.9609 7.54947C12.2786 7.82291 12.5081 8.16251 12.6492 8.56827L14.3428 7.88025C14.1487 7.26279 13.7913 6.72473 13.271 6.26605C12.7505 5.80734 12.1729 5.55154 11.5376 5.49863L11.5376 4.17551L9.6853 4.17551L9.6853 5.49863C8.80322 5.69269 8.11523 6.08081 7.62109 6.66296C7.1272 7.24515 6.88037 7.89789 6.88037 8.62122C6.88037 9.45035 7.1228 10.1207 7.60791 10.6324C8.09302 11.144 8.8562 11.585 9.89697 11.9555C11.0083 12.3612 11.7803 12.7229 12.2124 13.0404C12.6448 13.358 12.8608 13.7726 12.8608 14.2842C12.8608 14.8664 12.6536 15.2942 12.239 15.5676C11.8242 15.8411 11.3259 15.9778 10.7439 15.9778C10.1616 15.9778 9.64551 15.7969 9.1958 15.4353C8.74585 15.0736 8.41504 14.5312 8.20337 13.8079L6.45679 14.4959C6.70386 15.3427 7.08765 16.0263 7.60791 16.5467C8.12842 17.0671 8.80322 17.4244 9.63232 17.6184L9.63232 18.9945ZM10.585 22.17C9.12085 22.17 7.74463 21.8922 6.45679 21.3364C5.16895 20.7807 4.04883 20.0266 3.09619 19.0739C2.14355 18.1212 1.38916 17.001 0.833496 15.7132C0.277832 14.4253 0 13.0493 0 11.585C0 10.1207 0.277832 8.74469 0.833496 7.45685C1.38916 6.16901 2.14355 5.04877 3.09619 4.0961C4.04883 3.14346 5.16895 2.38928 6.45679 1.83356C7.74463 1.27786 9.12085 1 10.585 1C12.0493 1 13.4253 1.27786 14.7131 1.83356C16.001 2.38928 17.1213 3.14346 18.074 4.0961C19.0266 5.04877 19.7808 6.16901 20.3364 7.45685C20.8921 8.74469 21.1699 10.1207 21.1699 11.585C21.1699 13.0493 20.8921 14.4253 20.3364 15.7132C19.7808 17.001 19.0266 18.1212 18.074 19.0739C17.1213 20.0266 16.001 20.7807 14.7131 21.3364C13.4253 21.8922 12.0493 22.17 10.585 22.17Z" fill="#FFFFFF" fill-opacity="1.000000" fill-rule="nonzero"/>
	<path id="1" d="M36.3623 4.4541L34.2236 4.4541L30.5957 6.82715L30.5957 8.92676L34.0723 6.65625L34.1602 6.65625L34.1602 19L36.3623 19L36.3623 4.4541Z" fill="#FFFFFF" fill-opacity="1.000000" fill-rule="evenodd"/>
</svg>
